<svg width="870" height="375" viewBox="0 0 870 375" fill="none" xmlns="http://www.w3.org/2000/svg">
<path d="M59.0851 10.4587V156.628C59.0851 160.744 59.3376 163.558 59.8426 165.071C60.3476 166.499 61.063 167.591 61.9888 168.347L63.2513 169.481C65.0188 170.909 66.3655 172.421 67.2913 174.017C68.2171 175.613 68.6801 177.629 68.6801 180.066C68.6801 183.258 67.7122 185.778 65.7763 187.626C63.9246 189.39 61.3996 190.272 58.2013 190.272H11.8675C8.66918 190.272 6.10209 189.39 4.16625 187.626C2.23042 185.778 1.2625 183.258 1.2625 180.066C1.2625 177.629 1.72542 175.613 2.65125 174.017C3.66125 172.421 5.05 170.909 6.81751 169.481L8.08001 168.347C9.00584 167.591 9.72126 166.499 10.2263 165.071C10.7313 163.558 10.9838 160.744 10.9838 156.628V45.4889C10.9838 42.1287 10.6471 39.7766 9.97376 38.4325C9.30043 37.0884 8.24834 35.9543 6.81751 35.0302L5.68126 34.2742C3.66125 32.9301 2.18834 31.586 1.2625 30.2419C0.420834 28.8979 0 27.1757 0 25.0756C0 22.6395 0.715417 20.5393 2.14625 18.7752C3.66125 17.0111 6.18626 15.373 9.72126 13.8609L32.6988 4.53629C36.9913 2.77218 40.358 1.5961 42.7988 1.00807C45.2396 0.336022 47.5542 0 49.7425 0C52.8567 0 55.1713 0.966062 56.6863 2.89819C58.2855 4.83031 59.0851 7.35047 59.0851 10.4587Z" fill="#5D3D87"/>
<path d="M137.743 74.2188C150.368 74.2188 161.31 76.7809 170.568 81.9053C179.826 86.9456 187.022 93.96 192.157 102.949C197.291 111.853 199.858 122.186 199.858 133.947C199.858 144.699 197.165 154.528 191.778 163.432C186.475 172.253 179.027 179.309 169.432 184.602C159.921 189.894 148.769 192.54 135.975 192.54C123.519 192.54 112.619 190.02 103.277 184.98C94.0182 179.856 86.8219 172.841 81.6878 163.936C76.5536 154.948 73.9865 144.573 73.9865 132.812C73.9865 121.976 76.6378 112.147 81.9403 103.327C87.3269 94.506 94.7757 87.4496 104.287 82.1573C113.882 76.8649 125.034 74.2188 137.743 74.2188ZM146.075 168.599C148.348 168.011 150.031 166.331 151.125 163.558C152.22 160.702 152.598 156.586 152.262 151.21C151.925 145.749 150.662 138.777 148.474 130.292C146.37 121.724 144.139 115.003 141.783 110.131C139.51 105.259 137.154 101.899 134.713 100.05C132.272 98.1183 129.957 97.4462 127.769 98.0343C125.581 98.6223 123.897 100.344 122.719 103.201C121.625 105.973 121.246 110.089 121.583 115.549C122.004 120.926 123.266 127.856 125.37 136.341C127.559 144.825 129.789 151.546 132.062 156.502C134.418 161.458 136.775 164.861 139.132 166.709C141.572 168.557 143.887 169.187 146.075 168.599Z" fill="#5D3D87"/>
<path d="M275.172 170.111V166.583L270.627 166.205V101.058C270.627 98.2023 269.996 95.9341 268.733 94.254C267.471 92.5739 265.661 91.7339 263.304 91.7339C261.705 91.7339 260.232 92.1959 258.886 93.12C257.623 93.96 256.992 95.1781 256.992 96.7742V102.823C256.992 109.627 254.888 114.835 250.679 118.448C246.555 122.06 240.579 123.866 232.752 123.866C225.514 123.866 220.169 122.312 216.718 119.204C213.352 116.095 211.668 111.853 211.668 106.477C211.668 101.016 213.899 95.8501 218.359 90.9778C222.904 86.0215 229.722 81.9893 238.812 78.8811C247.902 75.7729 259.18 74.2188 272.647 74.2188C288.891 74.2188 300.632 77.243 307.871 83.2913C315.193 89.2557 318.855 97.4882 318.855 107.989V157.51C318.855 158.602 319.107 159.652 319.612 160.66C320.201 161.668 321.253 162.172 322.768 162.172C323.526 162.172 324.199 162.046 324.788 161.794C325.377 161.542 325.925 161.248 326.43 160.912C326.85 160.66 327.313 160.45 327.818 160.282C328.323 160.03 328.912 159.904 329.586 159.904C331.353 159.904 332.7 160.702 333.626 162.298C334.552 163.81 335.015 165.617 335.015 167.717C335.015 171.665 333.794 175.571 331.353 179.435C328.912 183.3 325.42 186.534 320.875 189.138C316.33 191.658 310.943 192.918 304.715 192.918C296.298 192.918 289.27 190.776 283.631 186.492C277.992 182.124 275.172 176.663 275.172 170.111ZM207.881 164.062C207.881 152.554 212.552 143.607 221.894 137.223C231.321 130.754 244.241 127.52 260.653 127.52C264.272 127.52 267.597 127.772 270.627 128.276C273.741 128.696 276.266 129.326 278.202 130.166L273.531 144.405C272.1 143.481 270.795 142.851 269.617 142.515C268.523 142.179 267.218 142.011 265.703 142.011C262.757 142.011 260.401 143.145 258.633 145.413C256.95 147.597 256.108 150.538 256.108 154.234C256.108 157.93 256.992 160.87 258.759 163.054C260.611 165.155 263.22 166.205 266.587 166.205C268.523 166.205 270.248 165.827 271.763 165.071C273.362 164.231 274.499 163.39 275.172 162.55L277.949 176.537C274.751 181.662 269.785 185.694 263.052 188.634C256.403 191.49 249.207 192.918 241.463 192.918C230.942 192.918 222.694 190.23 216.718 184.854C210.827 179.393 207.881 172.463 207.881 164.062Z" fill="#5D3D87"/>
<path d="M402.86 156.628C402.86 160.324 403.323 163.138 404.249 165.071C405.175 167.003 406.732 168.095 408.92 168.347L418.263 169.355C421.629 169.691 424.028 170.783 425.459 172.631C426.974 174.479 427.731 176.873 427.731 179.814C427.731 186.786 424.196 190.272 417.126 190.272H349.33C346.132 190.272 343.565 189.39 341.629 187.626C339.693 185.778 338.725 183.258 338.725 180.066C338.725 177.209 339.356 174.941 340.619 173.261C341.966 171.497 343.943 170.069 346.553 168.977L348.573 168.095C350.424 167.423 351.897 166.205 352.991 164.441C354.086 162.592 354.633 159.82 354.633 156.124V108.493C354.633 106.561 354.17 105.049 353.244 103.957C352.402 102.865 350.593 101.689 347.815 100.428L345.416 99.2943C341.966 97.6142 339.441 95.7661 337.841 93.75C336.326 91.7339 335.569 89.3817 335.569 86.6936C335.569 83.8374 336.495 81.5692 338.346 79.8891C340.282 78.125 342.891 77.243 346.174 77.243H367.51L355.011 82.0313V77.621C355.011 75.6889 354.338 73.9247 352.991 72.3286C351.645 70.6485 350.088 68.7164 348.32 66.5323C346.553 64.3481 344.996 61.6179 343.649 58.3417C342.302 55.0655 341.629 50.8233 341.629 45.6149C341.629 35.6183 345.753 27.2177 354.001 20.4133C362.334 13.6089 374.243 10.2067 389.73 10.2067C399.662 10.2067 407.994 11.7188 414.728 14.743C421.545 17.7671 426.637 21.7994 430.004 26.8397C433.455 31.796 435.18 37.1724 435.18 42.9688C435.18 49.3532 433.413 54.2675 429.878 57.7117C426.343 61.1559 421.798 62.878 416.243 62.878C409.846 62.878 404.796 60.9459 401.093 57.0817C397.389 53.2174 395.538 48.0511 395.538 41.5827V36.6683C395.538 33.6442 394.738 31.376 393.139 29.8639C391.624 28.2678 389.52 27.4698 386.826 27.4698C383.881 27.4698 381.692 28.3518 380.261 30.1159C378.915 31.8801 378.241 34.2322 378.241 37.1724C378.241 39.8606 378.915 42.5067 380.261 45.1109C381.692 47.7151 383.418 50.3192 385.438 52.9234C387.542 55.4436 389.604 58.0477 391.624 60.7359C393.644 63.3401 395.369 66.0282 396.8 68.8004C398.231 71.5726 398.946 74.4708 398.946 77.495V85.9375L391.498 77.243H419.399C422.681 77.243 425.206 77.999 426.974 79.5111C428.826 81.0232 429.751 83.2073 429.751 86.0635C429.751 90.3478 427.984 93.96 424.449 96.9002C420.914 99.7564 415.022 101.184 406.774 101.184H402.86V156.628Z" fill="#5D3D87"/>
<path d="M187.776 300.277C191.563 300.277 194.299 299.563 195.982 298.135C197.666 296.707 198.507 295.069 198.507 293.221C198.507 292.045 198.213 290.953 197.624 289.945C197.034 288.936 195.898 287.97 194.215 287.046C192.531 286.038 190.049 285.114 186.766 284.274C173.468 280.746 163.157 277.05 155.835 273.185C148.512 269.237 143.378 264.617 140.432 259.325C137.571 253.948 136.14 247.522 136.14 240.045C136.14 228.201 140.18 218.624 148.26 211.316C156.34 203.923 168.712 200.227 185.377 200.227C190.175 200.227 194.215 200.689 197.497 201.613C200.78 202.453 203.599 203.335 205.956 204.259C208.313 205.099 210.417 205.519 212.269 205.519C213.868 205.519 215.256 205.099 216.435 204.259C217.697 203.335 219.002 202.453 220.349 201.613C221.695 200.689 223.336 200.227 225.272 200.227C227.545 200.227 229.523 200.983 231.206 202.495C232.974 203.923 234.446 206.737 235.625 210.938L238.276 221.144C239.707 226.604 240.044 231.267 239.286 235.131C238.613 238.911 236.635 241.431 233.352 242.692C229.986 244.036 226.703 244.12 223.505 242.944C220.306 241.683 217.403 239.331 214.794 235.887C211.764 231.771 208.818 228.537 205.956 226.184C203.094 223.748 200.233 222.026 197.371 221.018C194.594 219.926 191.774 219.38 188.912 219.38C185.041 219.38 182.179 220.22 180.327 221.9C178.56 223.496 177.676 225.386 177.676 227.571C177.676 229.167 178.139 230.637 179.065 231.981C179.991 233.241 181.758 234.459 184.367 235.635C186.976 236.727 190.68 237.819 195.477 238.911C204.651 240.759 212.521 243.448 219.086 246.976C225.735 250.42 230.827 254.872 234.362 260.333C237.981 265.709 239.791 272.345 239.791 280.242C239.791 288.306 237.687 295.279 233.479 301.159C229.27 307.04 223.463 311.576 216.056 314.768C208.649 317.96 200.149 319.556 190.553 319.556C184.746 319.556 180.243 319.136 177.045 318.296C173.931 317.456 171.532 316.616 169.848 315.776C168.249 314.852 166.818 314.39 165.556 314.39C164.125 314.39 162.778 314.852 161.516 315.776C160.253 316.616 158.949 317.456 157.602 318.296C156.256 319.136 154.698 319.556 152.931 319.556C150.658 319.556 148.849 318.8 147.502 317.288C146.156 315.86 145.146 313.298 144.472 309.602L142.073 296.245C141.148 290.701 141.021 286.374 141.695 283.266C142.452 280.074 144.598 278.058 148.133 277.218C151.248 276.462 154.278 276.798 157.223 278.226C160.253 279.654 163.199 282.3 166.061 286.164C170.185 291.709 173.762 295.447 176.792 297.379C179.822 299.311 183.483 300.277 187.776 300.277Z" fill="#5D3D87"/>
<path d="M302.531 210.685V221.144L304.678 225.68V341.356C304.678 345.472 304.93 348.244 305.435 349.672C305.94 351.1 306.656 352.235 307.581 353.075L308.844 354.209C310.527 355.637 311.874 357.149 312.884 358.745C313.894 360.341 314.399 362.357 314.399 364.793C314.399 367.902 313.431 370.38 311.495 372.228C309.559 374.076 306.992 375 303.794 375H257.46C254.262 375 251.695 374.076 249.759 372.228C247.823 370.464 246.855 367.986 246.855 364.793C246.855 362.357 247.36 360.341 248.37 358.745C249.38 357.233 250.727 355.721 252.41 354.209L253.673 353.075C254.598 352.319 255.314 351.184 255.819 349.672C256.324 348.244 256.576 345.472 256.576 341.356V245.716C256.576 242.356 256.24 240.003 255.566 238.659C254.893 237.315 253.841 236.181 252.41 235.257L251.274 234.501C249.254 233.157 247.781 231.813 246.855 230.469C246.013 229.125 245.593 227.403 245.593 225.302C245.593 222.866 246.308 220.808 247.739 219.128C249.254 217.364 251.821 215.684 255.44 214.088L275.009 205.393C279.386 203.461 282.921 202.117 285.614 201.361C288.391 200.605 290.832 200.227 292.936 200.227C296.135 200.227 298.534 201.193 300.133 203.125C301.732 205.057 302.531 207.577 302.531 210.685ZM296.598 244.834L288.265 235.383C294.578 224.462 301.648 215.894 309.475 209.677C317.387 203.377 326.645 200.227 337.25 200.227C346.004 200.227 353.663 202.537 360.228 207.157C366.877 211.694 372.053 218.12 375.757 226.436C379.46 234.753 381.312 244.582 381.312 255.922C381.312 269.363 378.955 280.83 374.241 290.323C369.528 299.815 362.963 307.082 354.547 312.122C346.214 317.078 336.493 319.556 325.383 319.556C316.629 319.556 309.012 317.582 302.531 313.634C296.051 309.686 290.327 303.637 285.361 295.489L298.365 279.738C301.059 285.198 303.752 288.894 306.445 290.827C309.139 292.759 312.084 293.725 315.283 293.725C318.565 293.725 321.427 292.507 323.868 290.071C326.309 287.634 328.202 284.022 329.549 279.234C330.896 274.446 331.569 268.607 331.569 261.719C331.569 254.158 330.811 248.026 329.296 243.322C327.781 238.617 325.677 235.173 322.984 232.989C320.375 230.721 317.303 229.587 313.768 229.587C310.317 229.587 307.119 230.763 304.173 233.115C301.311 235.383 298.786 239.289 296.598 244.834Z" fill="#5D3D87"/>
<path d="M443.432 254.662C443.432 242.061 444.863 231.771 447.725 223.79C450.587 215.726 454.5 209.803 459.466 206.023C464.432 202.159 470.113 200.227 476.51 200.227C484.001 200.227 489.85 202.789 494.059 207.913C498.267 213.038 500.371 220.724 500.371 230.973C500.371 241.221 498.435 248.74 494.564 253.528C490.692 258.233 485.642 260.585 479.414 260.585C472.765 260.585 467.757 259.073 464.39 256.048C461.108 253.024 459.466 248.824 459.466 243.448V238.281C459.466 236.181 459.13 234.669 458.456 233.745C457.783 232.737 456.773 232.233 455.426 232.233C453.995 232.233 452.733 232.947 451.639 234.375C450.629 235.719 449.829 237.819 449.24 240.675C448.735 243.448 448.482 246.934 448.482 251.134L443.432 254.662ZM445.452 212.198L448.482 235.005V282.636C448.482 286.332 448.945 289.105 449.871 290.953C450.797 292.801 452.354 293.935 454.542 294.355L461.36 295.489C464.306 295.993 466.452 297.211 467.799 299.143C469.145 300.991 469.819 303.301 469.819 306.074C469.819 309.098 468.893 311.576 467.041 313.508C465.19 315.356 462.496 316.28 458.961 316.28H401.265C398.067 316.28 395.5 315.398 393.564 313.634C391.628 311.786 390.66 309.266 390.66 306.074C390.66 303.637 391.123 301.621 392.049 300.025C393.059 298.429 394.447 296.917 396.215 295.489L397.477 294.355C398.403 293.515 399.077 292.381 399.497 290.953C400.002 289.525 400.255 286.752 400.255 282.636V245.716C400.255 242.356 399.918 240.003 399.245 238.659C398.656 237.315 397.646 236.181 396.215 235.257L395.079 234.501C393.059 233.157 391.586 231.813 390.66 230.469C389.818 229.125 389.397 227.403 389.397 225.302C389.397 222.866 390.113 220.766 391.544 219.002C393.059 217.154 395.584 215.516 399.119 214.088L423.106 204.259C426.557 202.831 429.461 201.823 431.817 201.235C434.258 200.563 436.278 200.227 437.877 200.227C439.982 200.227 441.623 201.025 442.801 202.621C443.98 204.217 444.863 207.409 445.452 212.198Z" fill="#5D3D87"/>
<path d="M568.686 200.227C581.311 200.227 592.253 202.789 601.511 207.913C610.77 212.954 617.966 219.968 623.1 228.957C628.234 237.861 630.801 248.194 630.801 259.955C630.801 270.707 628.108 280.536 622.721 289.441C617.419 298.261 609.97 305.318 600.375 310.61C590.864 315.902 579.712 318.548 566.919 318.548C554.462 318.548 543.563 316.028 534.22 310.988C524.962 305.864 517.766 298.849 512.631 289.945C507.497 280.956 504.93 270.581 504.93 258.821C504.93 247.984 507.581 238.155 512.884 229.335C518.271 220.514 525.719 213.458 535.23 208.165C544.825 202.873 555.977 200.227 568.686 200.227ZM577.019 294.607C579.291 294.019 580.975 292.339 582.069 289.567C583.163 286.71 583.542 282.594 583.205 277.218C582.868 271.757 581.606 264.785 579.418 256.3C577.313 247.732 575.083 241.011 572.726 236.139C570.454 231.267 568.097 227.907 565.656 226.058C563.216 224.126 560.901 223.454 558.713 224.042C556.524 224.63 554.841 226.352 553.663 229.209C552.568 231.981 552.19 236.097 552.526 241.557C552.947 246.934 554.21 253.864 556.314 262.349C558.502 270.833 560.733 277.554 563.005 282.51C565.362 287.466 567.719 290.869 570.075 292.717C572.516 294.565 574.831 295.195 577.019 294.607Z" fill="#5D3D87"/>
<path d="M718.488 295.363V291.205L717.099 290.827V245.716C717.099 242.356 716.763 240.003 716.089 238.659C715.416 237.315 714.364 236.181 712.933 235.257L711.797 234.501C709.777 233.157 708.304 231.813 707.378 230.469C706.536 229.125 706.116 227.403 706.116 225.302C706.116 222.866 706.831 220.766 708.262 219.002C709.777 217.238 712.344 215.6 715.963 214.088L738.814 204.763C743.107 202.999 746.474 201.823 748.914 201.235C751.355 200.563 753.67 200.227 755.858 200.227C758.972 200.227 761.287 201.193 762.802 203.125C764.401 205.057 765.201 207.577 765.201 210.685V282.636C765.201 286.752 765.453 289.567 765.958 291.079C766.463 292.507 767.179 293.599 768.104 294.355L769.367 295.489C771.134 296.917 772.481 298.429 773.407 300.025C774.417 301.621 774.922 303.637 774.922 306.074C774.922 309.266 773.954 311.786 772.018 313.634C770.082 315.398 767.515 316.28 764.317 316.28H739.951C733.217 316.28 727.957 314.264 724.169 310.232C720.382 306.2 718.488 301.243 718.488 295.363ZM646.778 282.132V245.716C646.778 242.356 646.441 240.003 645.768 238.659C645.179 237.315 644.169 236.181 642.738 235.257L641.602 234.501C639.582 233.157 638.109 231.813 637.183 230.469C636.341 229.125 635.92 227.403 635.92 225.302C635.92 222.866 636.636 220.766 638.067 219.002C639.498 217.238 642.023 215.6 645.642 214.088L668.619 204.763C672.912 202.999 676.278 201.823 678.719 201.235C681.16 200.563 683.475 200.227 685.663 200.227C688.777 200.227 691.092 201.193 692.607 203.125C694.206 205.057 695.006 207.577 695.006 210.685V269.909C695.006 274.698 695.889 278.352 697.657 280.872C699.508 283.308 701.991 284.526 705.106 284.526C707.378 284.526 709.482 284.064 711.418 283.14C713.438 282.216 715.416 280.872 717.352 279.108L720.887 275.58L729.472 286.668L724.548 291.961C714.785 302.377 706.116 309.602 698.541 313.634C691.05 317.582 683.853 319.556 676.952 319.556C667.609 319.556 660.245 316.238 654.858 309.602C649.471 302.965 646.778 293.809 646.778 282.132Z" fill="#5D3D87"/>
<path d="M783.14 226.058L780.867 224.798C778.595 223.622 777.122 222.152 776.449 220.388C775.775 218.624 775.439 216.482 775.439 213.962C775.439 210.685 776.575 208.039 778.847 206.023C781.12 203.923 783.982 202.873 787.432 202.873H789.831C791.178 202.873 792.525 202.327 793.871 201.235C795.302 200.059 797.196 197.917 799.553 194.808L809.526 181.956C812.135 178.511 814.787 175.907 817.48 174.143C820.173 172.295 822.951 171.371 825.813 171.371C829.011 171.371 831.494 172.337 833.261 174.269C835.113 176.201 836.039 179.183 836.039 183.216V268.901C836.039 274.026 836.838 277.806 838.438 280.242C840.121 282.594 842.772 283.77 846.391 283.77C848.58 283.77 850.473 283.266 852.073 282.258C853.672 281.25 855.103 280.116 856.365 278.856C857.712 277.512 859.016 276.336 860.279 275.328C861.625 274.32 862.972 273.816 864.319 273.816C865.834 273.816 866.97 274.488 867.728 275.832C868.569 277.092 868.99 279.318 868.99 282.51C868.99 288.81 867.138 294.733 863.435 300.277C859.732 305.822 854.724 310.316 848.411 313.76C842.183 317.204 835.113 318.926 827.201 318.926C813.903 318.926 804.013 315.65 797.533 309.098C791.052 302.461 787.811 292.003 787.811 277.722V236.391C787.811 233.619 787.559 231.477 787.054 229.965C786.549 228.453 785.244 227.151 783.14 226.058ZM819.879 226.689V202.873H859.648C862.93 202.873 865.455 203.629 867.223 205.141C869.074 206.653 870 208.837 870 211.694C870 215.894 868.19 219.464 864.571 222.404C861.036 225.26 855.187 226.689 847.023 226.689H819.879Z" fill="#5D3D87"/>
</svg>
